<svg width="129" height="114" viewBox="0 0 129 114" fill="none" xmlns="http://www.w3.org/2000/svg">
<path d="M43.7287 81.8742L32.6385 89.9758L32.6235 89.9633C29.5537 92.1488 25.3747 93.5051 20.7493 93.5051C13.7081 93.5051 7.69471 90.3711 5.10254 85.9181C8.12986 91.4228 12.5077 96.4402 18.1747 100.54C40.9765 117.234 79.3188 117.579 102.645 100.54L128.199 81.8742C116.537 73.3562 101.252 69.0984 85.9637 69.0984C70.6783 69.0984 55.3916 73.3562 43.7287 81.8742Z" fill="url(#paint0_linear)"/>
<path d="M0.801758 69.6291C0.801758 92.6329 25.0595 111.285 55.79 113.075C55.79 113.075 56.04 113.097 56.1687 113.102C57.6247 113.182 60.5018 113.189 60.5018 113.189C67.792 113.217 75.0659 112.38 81.9699 110.423C80.5389 110.721 79.0791 110.963 77.5168 110.963C68.1182 110.963 60.5018 105.375 60.5018 98.4809V44.6011C60.5018 20.4142 33.772 0.809814 0.801758 0.809814V69.6291Z" fill="url(#paint1_linear)"/>
<path d="M77.3587 110.946C67.9545 110.946 60.3324 105.312 60.3324 98.3643V72.8623C54.3297 74.9704 48.7009 77.852 43.7336 81.5248L32.6412 89.7194L32.6249 89.7056C29.5573 91.918 25.3766 93.289 20.7508 93.289C13.7102 93.289 7.6937 90.1181 5.10254 85.6152C8.09388 91.1181 12.4071 96.1304 17.9746 100.251C18.0696 100.321 18.1597 100.393 18.2547 100.464C18.5836 100.708 18.9275 100.936 19.2626 101.173C24.9252 105.11 31.6257 108.246 39.0415 110.325C39.1016 110.344 39.1616 110.359 39.2216 110.375C39.9432 110.576 40.6748 110.765 41.4126 110.944C41.6752 111.009 41.9403 111.072 42.2079 111.135C42.7594 111.264 43.3147 111.385 43.875 111.502C44.3339 111.6 44.7941 111.691 45.2556 111.779C45.6458 111.853 46.0372 111.925 46.4311 111.995C47.0551 112.105 47.6804 112.205 48.307 112.301C48.5621 112.34 48.8172 112.377 49.0736 112.415C49.8189 112.517 50.568 112.611 51.3183 112.694C51.4784 112.713 51.6397 112.732 51.8035 112.75C52.6226 112.835 53.4442 112.91 54.2659 112.971C54.3797 112.98 54.491 112.989 54.6048 112.996C55.9716 113.094 57.3447 113.146 58.7179 113.175C59.617 113.188 60.3324 113.19 60.3324 113.19C61.5767 113.193 62.8185 113.165 64.0603 113.116C69.7729 112.868 75.4479 112.025 80.8953 110.581C79.7548 110.791 78.5868 110.946 77.3587 110.946Z" fill="#47271D"/>
<defs>
<linearGradient id="paint0_linear" x1="16.7911" y1="91.4063" x2="128.18" y2="91.4063" gradientUnits="userSpaceOnUse">
<stop stop-color="#3CAA36"/>
<stop offset="0.255752" stop-color="#3CAA36"/>
<stop offset="1" stop-color="#D1D94B"/>
</linearGradient>
<linearGradient id="paint1_linear" x1="0.801758" y1="57" x2="82.0601" y2="57" gradientUnits="userSpaceOnUse">
<stop stop-color="#E70973"/>
<stop offset="1" stop-color="#20145F"/>
</linearGradient>
</defs>
</svg>
