<svg width="32" height="32" viewBox="0 0 32 32" fill="none" xmlns="http://www.w3.org/2000/svg">
<g clip-path="url(#clip0_3188_52706)">
<path d="M13.3333 16C16.2789 16 18.6667 13.6122 18.6667 10.6666C18.6667 7.72113 16.2789 5.33331 13.3333 5.33331C10.3878 5.33331 8 7.72113 8 10.6666C8 13.6122 10.3878 16 13.3333 16Z" fill="#DB3F7A"/>
<path d="M22.6693 16H28.0026C28.7359 16 29.3359 15.4 29.3359 14.6666V10.6666C29.3359 9.93331 28.7359 9.33331 28.0026 9.33331V7.99998C28.0026 6.51998 26.8026 5.33331 25.3359 5.33331C23.8559 5.33331 22.6693 6.53331 22.6693 7.99998V9.33331C21.9359 9.33331 21.3359 9.93331 21.3359 10.6666V14.6666C21.3359 15.4 21.9359 16 22.6693 16ZM23.7359 7.99998C23.7359 7.11998 24.4559 6.39998 25.3359 6.39998C26.2159 6.39998 26.9359 7.11998 26.9359 7.99998V9.33331H23.7359V7.99998Z" fill="#DB3F7A"/>
<path d="M13.3346 18.6666C9.77464 18.6666 2.66797 20.4533 2.66797 24V26.6666H24.0013V24C24.0013 20.4533 16.8946 18.6666 13.3346 18.6666Z" fill="#DB3F7A"/>
</g>
<defs>
<clipPath id="clip0_3188_52706">
<rect width="32" height="32" fill="white"/>
</clipPath>
</defs>
</svg>
