<svg width="300" height="91" viewBox="0 0 300 91" fill="none" xmlns="http://www.w3.org/2000/svg">
<path d="M45.2738 56.5342L40.4114 60.1109L40.4043 60.1054C39.0595 61.0706 37.2252 61.668 35.1981 61.668C32.1114 61.668 29.4742 60.285 28.3385 58.3202C29.6653 60.7507 31.585 62.9656 34.0695 64.7743C44.0668 72.1449 60.879 72.2962 71.1066 64.7751L82.3109 56.5342C77.1971 52.774 70.4957 50.8939 63.7927 50.8939C57.0905 50.8939 50.3883 52.774 45.2738 56.5342Z" fill="url(#paint0_linear)"/>
<path d="M26.3632 51.1958C26.3632 61.3112 37.0043 69.5145 50.4854 70.3016C50.4854 70.3016 50.5951 70.3111 50.6507 70.3134C51.2906 70.3487 52.5516 70.3518 52.5516 70.3518C55.7504 70.3636 58.9405 69.9951 61.9701 69.135C61.3427 69.266 60.7012 69.3734 60.0159 69.3734C55.8945 69.3734 52.5524 66.9154 52.5524 63.8828H52.5516V40.1888C52.5516 29.552 40.8265 20.9301 26.3632 20.9301V51.1958Z" fill="url(#paint1_linear)"/>
<path d="M60.0155 69.3727C55.8925 69.3727 52.552 66.9156 52.552 63.8838H52.5512V52.7561C49.9195 53.6758 47.4515 54.9333 45.2741 56.5351L40.4109 60.111L40.4047 60.1048C39.0591 61.0707 37.2255 61.6689 35.1985 61.6689C32.1102 61.6689 29.4738 60.2859 28.3373 58.3195C29.6492 60.7202 31.54 62.9085 33.9805 64.7062C34.0228 64.7376 34.062 64.7682 34.1043 64.7987C34.2484 64.9038 34.3988 65.0057 34.546 65.1076C37.0281 66.8254 39.9661 68.1936 43.2165 69.1023C43.2431 69.1093 43.269 69.1171 43.2948 69.1234C43.6128 69.2112 43.9332 69.2935 44.2559 69.372C44.3718 69.4002 44.4885 69.4276 44.6044 69.4558C44.8472 69.5107 45.09 69.564 45.336 69.6158C45.5373 69.6573 45.7386 69.6981 45.9414 69.7357C46.1129 69.7679 46.2837 69.8008 46.456 69.8306C46.7301 69.8776 47.0043 69.9231 47.2792 69.9639C47.3912 69.9804 47.5024 69.9968 47.6152 70.0125C47.9426 70.0588 48.27 70.0995 48.599 70.1364C48.6702 70.1442 48.7399 70.1521 48.8112 70.1599C49.1715 70.1967 49.5318 70.2289 49.8921 70.2563C49.9422 70.2602 49.99 70.265 50.0401 70.2681C50.6401 70.3096 51.2416 70.3339 51.8439 70.3449C52.2379 70.3512 52.5512 70.3512 52.5512 70.3512C53.0971 70.3535 53.6415 70.3402 54.185 70.3198C56.6906 70.2116 59.1782 69.8432 61.5655 69.2144C61.0666 69.3053 60.5543 69.3727 60.0155 69.3727Z" fill="#47271D"/>
<path d="M95.0153 54.0735C95.0153 54.0735 92.4933 54.0735 92.4933 52.8606V36.8524C92.4933 36.8524 95.0153 36.8524 95.0153 38.0645V52.3996H102.458C104.5 52.3996 105.038 52.0351 105.038 52.0351C105.038 52.7634 104.77 54.0735 103.539 54.0735H95.0153Z" fill="#231F20"/>
<path d="M157.308 47.476L154.938 41.4124C154.128 39.3504 153.497 37.653 152.986 37.0226C152.986 37.0226 153.257 36.9497 153.767 36.9497C156.168 36.9497 156.769 39.1324 157.489 40.9521L159.92 47.0887C161.21 50.3863 162.622 51.5749 162.622 51.5749C162.622 51.5749 164.033 50.3863 165.322 47.0887L167.754 40.9521C168.474 39.1324 169.074 36.9497 171.475 36.9497C171.986 36.9497 172.256 37.0226 172.256 37.0226C171.747 37.653 171.115 39.3504 170.305 41.4124L167.934 47.476C165.983 52.4734 162.622 54.4844 162.622 54.4844C162.622 54.4844 159.259 52.4734 157.308 47.476Z" fill="#231F20"/>
<path d="M134.942 43.9599L137.313 50.0243C138.124 52.0855 138.754 53.7845 139.264 54.4133C139.264 54.4133 138.994 54.4854 138.483 54.4854C136.082 54.4854 135.482 52.3042 134.762 50.4837L132.331 44.348C131.04 41.0488 129.63 39.861 129.63 39.861C129.63 39.861 128.218 41.0488 126.927 44.348L124.496 50.4837C123.776 52.3042 123.176 54.4854 120.776 54.4854C120.264 54.4854 119.994 54.4133 119.994 54.4133C120.504 53.7845 121.135 52.0855 121.945 50.0243L124.317 43.9599C126.268 38.9633 129.63 36.9507 129.63 36.9507C129.63 36.9507 132.991 38.9633 134.942 43.9599Z" fill="#231F20"/>
<path d="M203.191 42.5046C203.191 39.9824 202.26 38.4778 197.398 38.4778C192.597 38.4778 191.665 39.9824 191.665 42.5046V48.6647C191.665 51.1861 192.597 52.6906 197.398 52.6906C202.26 52.6906 203.191 51.1861 203.191 48.6647V42.5046ZM205.712 48.9806C205.712 52.3519 203.071 54.3645 197.428 54.3645C191.755 54.3645 189.143 52.3519 189.143 48.9806V42.1886C189.143 38.8173 191.755 36.804 197.428 36.804C203.071 36.804 205.712 38.8173 205.712 42.1886V48.9806Z" fill="#231F20"/>
<path d="M227.734 38.7694V44.6394H231.634C234.847 44.6394 235.958 43.5724 235.958 41.559C235.958 39.497 234.488 38.7694 231.396 38.7694H227.734ZM232.386 46.1667C236.528 47.4768 238.238 52.4013 239.71 54.1951C239.71 54.1951 239.349 54.2696 238.839 54.2696C238 54.2696 236.708 54.0501 235.926 52.8866C233.556 49.3208 232.446 46.7249 227.734 46.2396V54.3174C227.734 54.3174 225.212 54.2931 225.212 53.1038V37.0963H231.396C235.506 37.0963 238.479 38.1383 238.479 41.1952V41.9228C238.479 44.6637 235.926 46.1667 232.386 46.1667Z" fill="#231F20"/>
<path d="M271.005 42.5046C271.005 39.9824 270.075 38.4778 265.212 38.4778C260.411 38.4778 259.479 39.9824 259.479 42.5046V48.6647C259.479 51.1861 260.411 52.6906 265.212 52.6906C270.075 52.6906 271.005 51.1861 271.005 48.6647V42.5046ZM273.527 48.9806C273.527 52.3519 270.885 54.3645 265.243 54.3645C259.569 54.3645 256.959 52.3519 256.959 48.9806V42.1886C256.959 38.8173 259.569 36.804 265.243 36.804C270.885 36.804 273.527 38.8173 273.527 42.1886V48.9806Z" fill="#231F20"/>
<defs>
<linearGradient id="paint0_linear" x1="33.4634" y1="60.7422" x2="82.3028" y2="60.7422" gradientUnits="userSpaceOnUse">
<stop stop-color="#3CAA36"/>
<stop offset="0.255752" stop-color="#3CAA36"/>
<stop offset="1" stop-color="#D1D94B"/>
</linearGradient>
<linearGradient id="paint1_linear" x1="26.3632" y1="45.6411" x2="62.0097" y2="45.6411" gradientUnits="userSpaceOnUse">
<stop stop-color="#E70973"/>
<stop offset="1" stop-color="#20145F"/>
</linearGradient>
</defs>
</svg>
