<svg width="124" height="105" viewBox="0 0 124 105" fill="none" xmlns="http://www.w3.org/2000/svg">
<g clip-path="url(#clip0)">
<path d="M9.41487 96.3574C10.128 96.6052 10.8937 96.6673 11.6382 96.5377C12.3827 96.408 13.0808 96.091 13.6654 95.6171C15.1541 94.3817 15.621 92.3469 16.0007 90.4623L17.124 84.8879L14.7722 86.489C13.0808 87.6404 11.3514 88.8287 10.1804 90.4964C9.0094 92.1641 8.49853 94.4408 9.43911 96.2454" fill="#BBBBBB"/>
<path d="M9.77841 103.494C9.4824 101.362 9.17784 99.2024 9.38597 97.0473C9.57042 95.1334 10.161 93.2644 11.3634 91.7313C12.0017 90.9192 12.7783 90.2234 13.6583 89.6751C13.8878 89.532 14.099 89.8915 13.8706 90.0341C12.3477 90.9855 11.1699 92.3905 10.5068 94.0465C9.77449 95.8879 9.6569 97.8954 9.78303 99.8516C9.85928 101.035 10.0213 102.21 10.184 103.384C10.1969 103.437 10.1889 103.493 10.1616 103.54C10.1343 103.588 10.0898 103.623 10.0371 103.639C9.98339 103.654 9.92609 103.646 9.87768 103.619C9.82926 103.592 9.79365 103.547 9.77856 103.494L9.77841 103.494Z" fill="#DADADA"/>
<path d="M11.9087 100.073C12.2145 100.533 12.6349 100.907 13.1294 101.159C13.6239 101.412 14.1758 101.534 14.732 101.514C16.1616 101.447 17.3529 100.461 18.4252 99.5247L21.5977 96.7554L19.4981 96.6561C17.9882 96.5846 16.4394 96.5175 15.0012 96.9784C13.5631 97.4392 12.2368 98.5467 11.9739 100.018" fill="#BBBBBB"/>
<path d="M8.94172 104.72C10.3668 102.227 12.0197 99.4563 14.9733 98.5707C15.7945 98.3253 16.6556 98.2374 17.5102 98.3117C17.7795 98.3347 17.7123 98.7452 17.4434 98.7223C16.0109 98.6047 14.5812 98.9787 13.3949 99.7813C12.2533 100.549 11.3645 101.618 10.6122 102.75C10.1514 103.444 9.73865 104.167 9.32589 104.889C9.19399 105.12 8.80829 104.953 8.94172 104.72Z" fill="#DADADA"/>
<path d="M122.972 73.9439H44.4034C44.1613 73.9436 43.9292 73.8484 43.7581 73.6792C43.5869 73.5099 43.4905 73.2804 43.4902 73.0411V0.902855C43.4906 0.6635 43.5869 0.434036 43.7581 0.264786C43.9292 0.0955355 44.1613 0.000312898 44.4034 0H122.972C123.214 0.000312898 123.446 0.0955355 123.617 0.264786C123.788 0.434036 123.884 0.6635 123.885 0.902855V73.0409C123.884 73.2803 123.788 73.5098 123.617 73.679C123.446 73.8483 123.214 73.9435 122.972 73.9438V73.9439ZM44.4034 0.360431C44.2583 0.360742 44.1193 0.417867 44.0167 0.519301C43.9141 0.620735 43.8563 0.758221 43.856 0.901671V73.0409C43.8563 73.1844 43.9141 73.3219 44.0167 73.4233C44.1193 73.5247 44.2583 73.5818 44.4034 73.5822H122.972C123.117 73.5819 123.256 73.5248 123.358 73.4233C123.461 73.3219 123.519 73.1844 123.519 73.0409V0.902855C123.519 0.759405 123.461 0.62192 123.358 0.520486C123.256 0.419051 123.117 0.361927 122.972 0.361615L44.4034 0.360431Z" fill="#DADADA"/>
<path d="M34.8594 63.3015C34.844 62.9801 34.7575 62.6659 34.606 62.3811C34.4545 62.0963 34.2417 61.8478 33.9825 61.6531C33.7234 61.4584 33.4242 61.3222 33.1061 61.2542C32.788 61.1862 32.4586 61.188 32.1413 61.2594L29.1971 57.1572L26.2393 58.3181L30.4793 64.0535C30.6361 64.5727 30.98 65.0169 31.4459 65.3022C31.9118 65.5874 32.4673 65.6937 33.0072 65.601C33.5471 65.5083 34.0339 65.223 34.3752 64.7992C34.7166 64.3754 34.8889 63.8425 34.8594 63.3015H34.8594Z" fill="#A0616A"/>
<path d="M29.121 62.9975L20.2124 51.5711L23.5504 41.1991C23.795 38.5914 25.4455 37.8633 25.5157 37.8335L25.6228 37.7881L28.5275 45.4464L26.3948 51.0693L31.6294 59.7736L29.121 62.9975Z" fill="#E679A2"/>
<path d="M60.0595 27.7739C59.7365 27.8139 59.4264 27.9235 59.1509 28.0949C58.8754 28.2662 58.6413 28.4952 58.465 28.7657C58.2887 29.0362 58.1745 29.3417 58.1305 29.6605C58.0865 29.9793 58.1138 30.3039 58.2104 30.6112L54.3013 33.8305L55.7006 36.6563L61.1565 32.0333C61.6679 31.8387 62.0893 31.4654 62.3409 30.9841C62.5925 30.5027 62.6568 29.9469 62.5216 29.4219C62.3863 28.8969 62.061 28.4391 61.6072 28.1354C61.1535 27.8316 60.6028 27.703 60.0595 27.7739V27.7739Z" fill="#A0616A"/>
<path d="M60.1966 33.4533L49.3628 43.1182L38.6454 40.6298C35.9968 40.5903 35.1349 39.0197 35.0995 38.9528L35.0454 38.8507L42.5436 35.3954L48.3787 37.0629L56.7516 31.23L60.1966 33.4533Z" fill="#E679A2"/>
<path d="M41.4307 102.161L44.3416 102.161L45.7262 91.0608L41.4302 91.061L41.4307 102.161Z" fill="#A0616A"/>
<path d="M49.9556 104.833L40.8073 104.834L40.8071 101.339L47.3888 101.339C48.0695 101.339 48.7224 101.606 49.2037 102.082C49.6851 102.558 49.9555 103.203 49.9555 103.876L49.9556 104.833L49.9556 104.833Z" fill="#292828"/>
<path d="M29.7968 102.161L32.7076 102.161L34.0924 91.0608L29.7964 91.061L29.7968 102.161Z" fill="#A0616A"/>
<path d="M38.3213 104.833L29.173 104.834L29.1728 101.339L35.7546 101.339C36.0916 101.339 36.4254 101.404 36.7367 101.532C37.0481 101.659 37.3311 101.846 37.5694 102.082C37.8078 102.318 37.9968 102.597 38.1258 102.905C38.2548 103.213 38.3212 103.543 38.3212 103.876L38.3213 104.833Z" fill="#292828"/>
<path d="M28.7612 61.6433L28.9986 78.0752L29.2362 99.6715L34.4595 99.202L37.0713 69.3899L40.3953 99.202H45.7879L46.331 69.1552L44.4316 62.5824L28.7612 61.6433Z" fill="#292828"/>
<path d="M38.9849 63.85C33.3015 63.8505 28.0699 61.3072 27.9993 61.2723L27.9407 61.2433L27.4637 49.9268C27.3254 49.5269 24.602 41.636 24.1408 39.1279C23.6734 36.5869 30.4464 34.3567 31.2689 34.096L31.4556 32.0518L39.0456 31.2432L40.0075 33.8588L42.7305 34.8683C43.0392 34.9828 43.2947 35.2053 43.4485 35.4936C43.6024 35.7819 43.6439 36.116 43.5653 36.4326L42.0519 42.5174L45.748 62.6486L44.9523 62.6827C43.0449 63.5344 40.9863 63.8499 38.9849 63.85Z" fill="#E679A2"/>
<path d="M38.169 29.2863C40.8173 27.855 41.7905 24.5722 40.3428 21.9539C38.8952 19.3356 35.5747 18.3733 32.9265 19.8046C30.2782 21.2359 29.3049 24.5188 30.7526 27.1371C32.2003 29.7554 35.5207 30.7176 38.169 29.2863Z" fill="#A0616A"/>
<path d="M31.1219 29.8288C32.1634 30.9256 34.0975 30.3368 34.2332 28.8384C34.2439 28.722 34.2431 28.605 34.2309 28.4888C34.1608 27.825 33.773 27.2224 33.8659 26.5216C33.8869 26.3472 33.9526 26.181 34.0568 26.0387C34.8868 24.94 36.8349 26.5302 37.6182 25.5355C38.0984 24.9256 37.5339 23.9653 37.9024 23.2836C38.3889 22.3839 39.8296 22.8278 40.7332 22.335C41.7384 21.7868 41.6783 20.2619 41.0166 19.3344C40.2095 18.2032 38.7946 17.5996 37.3972 17.5126C35.9999 17.4256 34.6122 17.7991 33.3077 18.3017C31.8254 18.8728 30.3556 19.6621 29.4435 20.9507C28.3342 22.5177 28.2275 24.6244 28.7822 26.4568C29.1197 27.5714 30.2714 28.9331 31.1219 29.8288Z" fill="#292828"/>
<path d="M69.5616 105.025H0.303362C0.255151 105.025 0.208912 105.006 0.174821 104.973C0.140731 104.939 0.121582 104.893 0.121582 104.845C0.121582 104.798 0.140731 104.752 0.174821 104.718C0.208912 104.685 0.255151 104.666 0.303362 104.666H69.5616C69.6099 104.666 69.6561 104.685 69.6902 104.718C69.7243 104.752 69.7434 104.798 69.7434 104.845C69.7434 104.893 69.7243 104.939 69.6902 104.973C69.6561 105.006 69.6099 105.025 69.5616 105.025Z" fill="#DADADA"/>
</g>
<path d="M101 19H95V15H91V19H71V15H67V19H61V59H101V19ZM97 55H65V29H97V55Z" fill="#616161"/>
<defs>
<clipPath id="clip0">
<rect width="123.763" height="105" fill="white" transform="translate(0.121582)"/>
</clipPath>
</defs>
</svg>
