<svg width="90" height="64" viewBox="0 0 90 64" fill="none" xmlns="http://www.w3.org/2000/svg">
<path fill-rule="evenodd" clip-rule="evenodd" d="M85.5811 3H4.50005C3.94776 3 3.50005 3.44772 3.50005 4V49.7287L18.3048 34.924C20.3587 32.8701 23.6556 32.7674 25.8334 34.6894L38.0904 45.5073C39.1029 46.401 40.6422 46.3289 41.5669 45.3445L60.9003 24.7624C63.0261 22.4993 66.6026 22.4433 68.7981 24.6389L86.5811 42.4219V4C86.5811 3.44772 86.1334 3 85.5811 3ZM0.439339 52.7894L0.500049 52.7287V4C0.500049 1.79086 2.29091 0 4.50005 0H85.5811C87.7903 0 89.5811 1.79086 89.5811 4V45.4223C90.1397 46.0026 90.1397 46.9218 89.5811 47.502V60C89.5811 62.2091 87.7903 64 85.5811 64H4.50005C2.29091 64 0.500049 62.2091 0.500049 60V54.9682C0.479414 54.9497 0.459168 54.9306 0.439339 54.9107C-0.146446 54.325 -0.146446 53.3752 0.439339 52.7894ZM86.5811 60V46.6646L66.6768 26.7602C65.6788 25.7622 64.0532 25.7877 63.0869 26.8164L43.7535 47.3985C41.7193 49.5641 38.3329 49.7226 36.1052 47.7566L23.8482 36.9387C22.8583 36.065 21.3597 36.1117 20.4261 37.0453L3.50005 53.9714V60C3.50005 60.5523 3.94776 61 4.50005 61H85.5811C86.1334 61 86.5811 60.5523 86.5811 60ZM28.6005 17.4697C28.6005 21.1625 25.6069 24.1562 21.914 24.1562C18.2212 24.1562 15.2275 21.1625 15.2275 17.4697C15.2275 13.7768 18.2212 10.7832 21.914 10.7832C25.6069 10.7832 28.6005 13.7768 28.6005 17.4697ZM31.6005 17.4697C31.6005 22.8194 27.2637 27.1562 21.914 27.1562C16.5643 27.1562 12.2275 22.8194 12.2275 17.4697C12.2275 12.12 16.5643 7.7832 21.914 7.7832C27.2637 7.7832 31.6005 12.12 31.6005 17.4697Z" fill="black" fill-opacity="0.08"/>
</svg>
