<svg width="123" height="105" viewBox="0 0 123 105" fill="none" xmlns="http://www.w3.org/2000/svg">
<g clip-path="url(#clip0_2561_21645)">
<path d="M9.23622 96.3574C9.94498 96.6052 10.706 96.6673 11.4458 96.5377C12.1857 96.408 12.8796 96.091 13.4605 95.6171C14.9401 94.3817 15.4041 92.3469 15.7814 90.4623L16.8978 84.8879L14.5605 86.489C12.8795 87.6404 11.1608 88.8287 9.99704 90.4964C8.83325 92.1641 8.32553 94.4408 9.26032 96.2454" fill="#BBBBBB"/>
<path d="M9.5971 103.494C9.30291 101.362 9.00023 99.2024 9.20708 97.0473C9.39039 95.1334 9.97737 93.2644 11.1724 91.7313C11.8067 90.9192 12.5785 90.2234 13.4531 89.6751C13.6811 89.532 13.8911 89.8915 13.664 90.0341C12.1506 90.9855 10.98 92.3905 10.321 94.0465C9.5932 95.8879 9.47634 97.8954 9.6017 99.8516C9.67747 101.035 9.8385 102.21 10.0002 103.384C10.013 103.437 10.005 103.493 9.97791 103.54C9.95081 103.588 9.90661 103.623 9.85424 103.639C9.80081 103.654 9.74387 103.646 9.69575 103.619C9.64764 103.592 9.61225 103.547 9.59725 103.494L9.5971 103.494Z" fill="#DADADA"/>
<path d="M11.7146 100.073C12.0185 100.533 12.4363 100.907 12.9278 101.159C13.4192 101.412 13.9678 101.534 14.5205 101.514C15.9413 101.447 17.1253 100.461 18.191 99.5247L21.3439 96.7554L19.2573 96.6561C17.7567 96.5846 16.2174 96.5175 14.7881 96.9784C13.3588 97.4392 12.0407 98.5467 11.7794 100.018" fill="#BBBBBB"/>
<path d="M8.76552 104.72C10.1818 102.227 11.8245 99.4563 14.7599 98.5707C15.5761 98.3253 16.4318 98.2374 17.2811 98.3117C17.5489 98.3347 17.482 98.7452 17.2148 98.7223C15.7912 98.6047 14.3702 98.9787 13.1912 99.7813C12.0567 100.549 11.1733 101.618 10.4257 102.75C9.96775 103.444 9.55754 104.167 9.14732 104.889C9.01624 105.12 8.63292 104.953 8.76552 104.72Z" fill="#DADADA"/>
<path d="M122.092 73.9439H44.0086C43.768 73.9436 43.5374 73.8484 43.3672 73.6792C43.1971 73.5099 43.1014 73.2804 43.1011 73.0411V0.902855C43.1014 0.6635 43.1971 0.434036 43.3672 0.264786C43.5374 0.0955355 43.768 0.000312898 44.0086 0H122.092C122.333 0.000312898 122.564 0.0955355 122.734 0.264786C122.904 0.434036 123 0.6635 123 0.902855V73.0409C123 73.2803 122.904 73.5098 122.734 73.679C122.564 73.8483 122.333 73.9435 122.092 73.9438V73.9439Z" fill="white"/>
<path d="M122.092 73.9439H44.0086C43.768 73.9436 43.5374 73.8484 43.3672 73.6792C43.1971 73.5099 43.1014 73.2804 43.1011 73.0411V0.902855C43.1014 0.6635 43.1971 0.434036 43.3672 0.264786C43.5374 0.0955355 43.768 0.000312898 44.0086 0H122.092C122.333 0.000312898 122.564 0.0955355 122.734 0.264786C122.904 0.434036 123 0.6635 123 0.902855V73.0409C123 73.2803 122.904 73.5098 122.734 73.679C122.564 73.8483 122.333 73.9435 122.092 73.9438V73.9439ZM44.0086 0.360431C43.8644 0.360742 43.7262 0.417867 43.6243 0.519301C43.5223 0.620735 43.4649 0.758221 43.4646 0.901671V73.0409C43.4649 73.1844 43.5223 73.3219 43.6243 73.4233C43.7262 73.5247 43.8644 73.5818 44.0086 73.5822H122.092C122.237 73.5819 122.375 73.5248 122.477 73.4233C122.579 73.3219 122.636 73.1844 122.636 73.0409V0.902855C122.636 0.759405 122.579 0.62192 122.477 0.520486C122.375 0.419051 122.237 0.361927 122.092 0.361615L44.0086 0.360431Z" fill="#DADADA"/>
<path d="M34.5236 63.3015C34.5083 62.9801 34.4223 62.6659 34.2717 62.3811C34.1212 62.0963 33.9096 61.8478 33.6521 61.6531C33.3945 61.4584 33.0972 61.3222 32.781 61.2542C32.4649 61.1862 32.1376 61.188 31.8222 61.2594L28.8961 57.1572L25.9565 58.3181L30.1705 64.0535C30.3262 64.5727 30.668 65.017 31.1311 65.3022C31.5941 65.5874 32.1462 65.6937 32.6828 65.601C33.2193 65.5083 33.7031 65.223 34.0424 64.7992C34.3816 64.3754 34.5529 63.8425 34.5236 63.3015H34.5236Z" fill="#A0616A"/>
<path d="M28.8208 62.9975L19.967 51.5711L23.2844 41.1991C23.5276 38.5914 25.1678 37.8633 25.2376 37.8335L25.3441 37.7881L28.2308 45.4464L26.1113 51.0693L31.3137 59.7736L28.8208 62.9975Z" fill="#E679A2"/>
<path d="M59.5684 27.7739C59.2475 27.8139 58.9392 27.9235 58.6654 28.0949C58.3916 28.2662 58.159 28.4952 57.9837 28.7657C57.8085 29.0362 57.6951 29.3417 57.6514 29.6605C57.6076 29.9793 57.6347 30.3039 57.7307 30.6112L53.8457 33.8305L55.2365 36.6563L60.6587 32.0333C61.1669 31.8387 61.5857 31.4654 61.8358 30.9841C62.0858 30.5027 62.1497 29.9469 62.0153 29.4219C61.8809 28.8969 61.5576 28.4391 61.1066 28.1354C60.6556 27.8316 60.1083 27.703 59.5684 27.7739Z" fill="#A0616A"/>
<path d="M59.7046 33.4533L48.9376 43.1182L38.2863 40.6298C35.654 40.5903 34.7975 39.0197 34.7623 38.9528L34.7085 38.8507L42.1605 35.3954L47.9596 37.0629L56.2809 31.23L59.7046 33.4533Z" fill="#E679A2"/>
<path d="M41.0545 102.161L43.9474 102.161L45.3235 91.0608L41.054 91.061L41.0545 102.161Z" fill="#A0616A"/>
<path d="M49.5266 104.833L40.4347 104.834L40.4346 101.339L46.9757 101.339C47.6522 101.339 48.301 101.606 48.7794 102.082C49.2578 102.558 49.5265 103.203 49.5266 103.876L49.5266 104.833L49.5266 104.833Z" fill="#292828"/>
<path d="M29.4921 102.161L32.385 102.161L33.7612 91.0608L29.4917 91.061L29.4921 102.161Z" fill="#A0616A"/>
<path d="M37.9644 104.833L28.8725 104.834L28.8723 101.339L35.4134 101.339C35.7484 101.339 36.0801 101.404 36.3896 101.532C36.6991 101.659 36.9803 101.846 37.2171 102.082C37.454 102.318 37.6419 102.597 37.7701 102.905C37.8983 103.213 37.9643 103.543 37.9643 103.876L37.9644 104.833Z" fill="#292828"/>
<path d="M28.4634 61.6433L28.6993 78.0752L28.9354 99.6715L34.1265 99.202L36.7222 69.3899L40.0258 99.202H45.385L45.9248 69.1552L44.0371 62.5824L28.4634 61.6433Z" fill="#292828"/>
<path d="M38.6239 63.85C32.9756 63.8505 27.7763 61.3072 27.7061 61.2723L27.6478 61.2433L27.1738 49.9268C27.0363 49.5269 24.3297 41.636 23.8713 39.1279C23.4069 36.5869 30.1381 34.3567 30.9555 34.096L31.141 32.0518L38.6842 31.2432L39.6403 33.8588L42.3465 34.8683C42.6533 34.9828 42.9072 35.2053 43.0601 35.4936C43.213 35.7819 43.2542 36.116 43.1761 36.4326L41.672 42.5174L45.3454 62.6486L44.5546 62.6827C42.6589 63.5344 40.613 63.8499 38.6239 63.85Z" fill="#E679A2"/>
<path d="M37.8129 29.2863C40.4449 27.855 41.4121 24.5722 39.9734 21.9539C38.5346 19.3356 35.2347 18.3733 32.6027 19.8046C29.9708 21.2359 29.0035 24.5188 30.4423 27.1371C31.881 29.7554 35.181 30.7176 37.8129 29.2863Z" fill="#A0616A"/>
<path d="M30.8091 29.8288C31.8441 30.9256 33.7663 30.3368 33.9012 28.8384C33.9118 28.722 33.911 28.605 33.8989 28.4888C33.8293 27.825 33.4438 27.2224 33.5362 26.5216C33.5571 26.3472 33.6224 26.181 33.7259 26.0387C34.5507 24.94 36.4869 26.5302 37.2653 25.5355C37.7426 24.9256 37.1815 23.9653 37.5478 23.2836C38.0312 22.3839 39.4631 22.8278 40.3611 22.335C41.3602 21.7868 41.3004 20.2619 40.6427 19.3344C39.8407 18.2032 38.4345 17.5996 37.0457 17.5126C35.657 17.4256 34.2779 17.7991 32.9814 18.3017C31.5083 18.8728 30.0475 19.6621 29.141 20.9507C28.0386 22.5177 27.9325 24.6244 28.4838 26.4568C28.8192 27.5715 29.9639 28.9331 30.8091 29.8288Z" fill="#292828"/>
<path d="M69.012 105.025H0.18066C0.132746 105.025 0.0867913 105.006 0.0529111 104.973C0.0190308 104.939 0 104.893 0 104.845C0 104.798 0.0190308 104.752 0.0529111 104.718C0.0867913 104.685 0.132746 104.666 0.18066 104.666H69.012C69.0599 104.666 69.1058 104.685 69.1397 104.718C69.1736 104.752 69.1926 104.798 69.1926 104.845C69.1926 104.893 69.1736 104.939 69.1397 104.973C69.1058 105.006 69.0599 105.025 69.012 105.025Z" fill="#DADADA"/>
</g>
<path d="M60.5 23.5H61.5V23H62C62.275 23 62.5 22.775 62.5 22.5V21C62.5 20.725 62.275 20.5 62 20.5H60.5V20H62.5V19H61.5V18.5H60.5V19H60C59.725 19 59.5 19.225 59.5 19.5V21C59.5 21.275 59.725 21.5 60 21.5H61.5V22H59.5V23H60.5V23.5ZM65 17H57C56.445 17 56.005 17.445 56.005 18L56 24C56 24.555 56.445 25 57 25H65C65.555 25 66 24.555 66 24V18C66 17.445 65.555 17 65 17ZM65 24H57V18H65V24Z" fill="white"/>
<path d="M79.02 55.02C79.02 57.22 80.8 59 83 59C85.2 59 86.98 57.22 86.98 55.02H79.02ZM83 25C88.52 25 93 29.48 93 35V49H73V35C73 29.48 77.48 25 83 25ZM83 16C81.34 16 80 17.34 80 19V21.34C73.72 22.7 69 28.3 69 35V47L65 51V53H101V51L97 47V35C97 28.3 92.28 22.7 86 21.34V19C86 17.34 84.66 16 83 16Z" fill="#616161"/>
<defs>
<clipPath id="clip0_2561_21645">
<rect width="123" height="105" fill="white"/>
</clipPath>
</defs>
</svg>
