<svg width="123" height="162" viewBox="0 0 123 162" fill="none" xmlns="http://www.w3.org/2000/svg">
<g clip-path="url(#clip0_4573_102228)">
<path d="M9.23671 151.023C9.94547 151.315 10.7064 151.388 11.4463 151.235C12.1862 151.083 12.88 150.71 13.461 150.153C14.9406 148.701 15.4046 146.31 15.7819 144.095L16.8983 137.543L14.561 139.425C12.88 140.778 11.1613 142.175 9.99752 144.135C8.83374 146.095 8.32602 148.771 9.26081 150.892" fill="#BBBBBB"/>
<path d="M9.59685 159.412C9.30267 156.906 8.99999 154.367 9.20684 151.834C9.39015 149.585 9.97713 147.388 11.1721 145.586C11.8064 144.632 12.5782 143.814 13.4529 143.17C13.6809 143.001 13.8908 143.424 13.6638 143.592C12.1503 144.71 10.9798 146.361 10.3208 148.307C9.59296 150.472 9.47609 152.831 9.60145 155.13C9.67723 156.521 9.83825 157.902 9.99997 159.282C10.0127 159.344 10.0048 159.41 9.97767 159.465C9.95057 159.521 9.90637 159.563 9.85399 159.582C9.80057 159.599 9.74362 159.59 9.69551 159.558C9.6474 159.527 9.612 159.474 9.597 159.411L9.59685 159.412Z" fill="#DADADA"/>
<path d="M11.7148 155.391C12.0188 155.931 12.4366 156.371 12.928 156.667C13.4195 156.964 13.968 157.108 14.5207 157.084C15.9415 157.006 17.1255 155.847 18.1912 154.746L21.3441 151.491L19.2575 151.374C17.7569 151.29 16.2176 151.212 14.7883 151.753C13.3591 152.295 12.0409 153.597 11.7796 155.326" fill="#BBBBBB"/>
<path d="M8.76577 160.853C10.1821 157.923 11.8248 154.666 14.7602 153.625C15.5763 153.337 16.4321 153.234 17.2814 153.321C17.5491 153.348 17.4822 153.831 17.2151 153.804C15.7914 153.665 14.3705 154.105 13.1915 155.048C12.057 155.951 11.1736 157.207 10.426 158.538C9.968 159.353 9.55778 160.203 9.14757 161.052C9.01649 161.323 8.63316 161.127 8.76577 160.853Z" fill="#DADADA"/>
<path d="M122.093 124.681H44.0091C43.7685 124.68 43.5379 124.568 43.3677 124.369C43.1976 124.17 43.1019 123.901 43.1016 123.619V38.8336C43.1019 38.5523 43.1976 38.2826 43.3677 38.0837C43.5379 37.8847 43.7685 37.7728 44.0091 37.7725H122.093C122.333 37.7728 122.564 37.8847 122.734 38.0837C122.904 38.2826 123 38.5523 123 38.8336V123.619C123 123.901 122.904 124.17 122.734 124.369C122.564 124.568 122.333 124.68 122.093 124.68V124.681ZM44.0091 38.1961C43.8649 38.1965 43.7267 38.2636 43.6248 38.3828C43.5228 38.502 43.4654 38.6636 43.4651 38.8322V123.619C43.4654 123.788 43.5228 123.949 43.6248 124.069C43.7267 124.188 43.8649 124.255 44.0091 124.255H122.093C122.237 124.255 122.375 124.188 122.477 124.069C122.579 123.949 122.637 123.788 122.637 123.619V38.8336C122.637 38.665 122.579 38.5034 122.477 38.3842C122.375 38.265 122.237 38.1978 122.093 38.1975L44.0091 38.1961Z" fill="#DADADA"/>
<path d="M34.5241 112.173C34.5087 111.795 34.4228 111.426 34.2722 111.091C34.1216 110.756 33.9101 110.464 33.6526 110.235C33.395 110.006 33.0977 109.846 32.7815 109.766C32.4654 109.687 32.1381 109.689 31.8227 109.773L28.8966 104.951L25.957 106.316L30.171 113.057C30.3267 113.667 30.6685 114.189 31.1315 114.524C31.5946 114.859 32.1467 114.984 32.6833 114.875C33.2198 114.766 33.7036 114.431 34.0429 113.933C34.3821 113.435 34.5533 112.809 34.5241 112.173H34.5241Z" fill="#A0616A"/>
<path d="M28.8205 111.815L19.9668 98.3851L23.2842 86.1946C23.5273 83.1297 25.1676 82.2739 25.2374 82.2389L25.3438 82.1855L28.2306 91.1866L26.111 97.7953L31.3134 108.026L28.8205 111.815Z" fill="#E679A2"/>
<path d="M59.5684 70.4159C59.2475 70.463 58.9392 70.5917 58.6654 70.7931C58.3916 70.9945 58.159 71.2637 57.9837 71.5816C57.8085 71.8996 57.6951 72.2585 57.6514 72.6333C57.6076 73.008 57.6347 73.3894 57.7307 73.7506L53.8457 77.5344L55.2365 80.8556L60.6587 75.4221C61.1669 75.1934 61.5857 74.7546 61.8358 74.1889C62.0858 73.6232 62.1497 72.9699 62.0153 72.3528C61.8809 71.7357 61.5576 71.1977 61.1066 70.8408C60.6556 70.4838 60.1083 70.3326 59.5684 70.4159Z" fill="#A0616A"/>
<path d="M59.7041 77.0907L48.9371 88.4501L38.2858 85.5254C35.6536 85.479 34.797 83.633 34.7618 83.5543L34.708 83.4344L42.16 79.3732L47.9591 81.3331L56.2804 74.4775L59.7041 77.0907Z" fill="#E679A2"/>
<path d="M41.0543 157.846L43.9472 157.845L45.3232 144.799L41.0537 144.799L41.0543 157.846Z" fill="#A0616A"/>
<path d="M49.5264 160.985L40.4345 160.986L40.4343 156.879L46.9754 156.878C47.652 156.878 48.3008 157.192 48.7791 157.752C49.2575 158.311 49.5263 159.07 49.5263 159.861L49.5264 160.985L49.5264 160.985Z" fill="#292828"/>
<path d="M29.4925 157.846L32.3855 157.845L33.7617 144.799L29.4922 144.799L29.4925 157.846Z" fill="#A0616A"/>
<path d="M37.9639 160.985L28.872 160.986L28.8718 156.879L35.413 156.878C35.7479 156.878 36.0796 156.955 36.3891 157.105C36.6986 157.255 36.9798 157.475 37.2166 157.752C37.4535 158.029 37.6414 158.357 37.7696 158.719C37.8978 159.081 37.9638 159.469 37.9638 159.861L37.9639 160.985Z" fill="#292828"/>
<path d="M28.4629 110.224L28.6988 129.536L28.935 154.919L34.126 154.367L36.7217 119.328L40.0253 154.367H45.3846L45.9244 119.053L44.0366 111.327L28.4629 110.224Z" fill="#292828"/>
<path d="M38.6242 112.817C32.9758 112.817 27.7765 109.828 27.7063 109.787L27.648 109.753L27.174 96.4525C27.0366 95.9825 24.33 86.7082 23.8716 83.7603C23.4071 80.7737 30.1384 78.1526 30.9558 77.8461L31.1413 75.4435L38.6845 74.4932L39.6405 77.5674L42.3467 78.7538C42.6535 78.8884 42.9074 79.15 43.0603 79.4888C43.2132 79.8277 43.2545 80.2204 43.1763 80.5925L41.6723 87.744L45.3456 111.405L44.5548 111.445C42.6592 112.446 40.6133 112.817 38.6242 112.817Z" fill="#E679A2"/>
<path d="M37.8127 72.1938C40.4446 70.5116 41.4119 66.6532 39.9731 63.5758C38.5344 60.4985 35.2344 59.3675 32.6025 61.0497C29.9705 62.732 29.0033 66.5904 30.442 69.6677C31.8808 72.7451 35.1807 73.8761 37.8127 72.1938Z" fill="#A0616A"/>
<path d="M30.8086 72.8311C31.8436 74.1203 33.7658 73.4282 33.9007 71.6671C33.9113 71.5304 33.9105 71.3928 33.8984 71.2562C33.8288 70.4761 33.4433 69.7678 33.5357 68.9442C33.5566 68.7392 33.6219 68.5438 33.7254 68.3766C34.5502 67.0852 36.4864 68.9542 37.2648 67.7851C37.7421 67.0683 37.181 65.9397 37.5473 65.1385C38.0308 64.081 39.4626 64.6027 40.3606 64.0236C41.3597 63.3792 41.2999 61.587 40.6423 60.4968C39.8402 59.1673 38.434 58.4579 37.0452 58.3557C35.6565 58.2534 34.2774 58.6923 32.9809 59.2831C31.5078 59.9543 30.047 60.882 29.1405 62.3965C28.0381 64.2383 27.932 66.7144 28.4833 68.868C28.8187 70.178 29.9634 71.7784 30.8086 72.8311Z" fill="#292828"/>
<path d="M69.012 161.212H0.18066C0.132746 161.212 0.0867913 161.189 0.0529111 161.15C0.0190308 161.11 0 161.056 0 161C0 160.944 0.0190308 160.891 0.0529111 160.851C0.0867913 160.811 0.132746 160.789 0.18066 160.789H69.012C69.0599 160.789 69.1058 160.811 69.1397 160.851C69.1736 160.891 69.1926 160.944 69.1926 161C69.1926 161.056 69.1736 161.11 69.1397 161.15C69.1058 161.189 69.0599 161.212 69.012 161.212Z" fill="#DADADA"/>
</g>
<g clip-path="url(#clip1_4573_102228)">
<path d="M61 100H85V104H61V100ZM69.48 74.14L75.14 68.48L103.42 96.76L97.76 102.42L69.48 74.14ZM83.64 60L94.96 71.32L89.3 76.98L77.98 65.66L83.64 60ZM66.66 76.96L77.98 88.28L72.32 93.94L61 82.62L66.66 76.96Z" fill="black" fill-opacity="0.54"/>
</g>
<defs>
<clipPath id="clip0_4573_102228">
<rect width="123" height="123.409" fill="white" transform="translate(0 37.7725)"/>
</clipPath>
<clipPath id="clip1_4573_102228">
<rect width="48" height="48" fill="white" transform="translate(59 58)"/>
</clipPath>
</defs>
</svg>
