<svg width="123" height="105" viewBox="0 0 123 105" fill="none" xmlns="http://www.w3.org/2000/svg">
<g clip-path="url(#clip0_1836_18152)">
<path d="M9.23622 96.3571C9.94498 96.605 10.706 96.6671 11.4458 96.5374C12.1857 96.4078 12.8796 96.0908 13.4605 95.6169C14.9401 94.3814 15.4041 92.3467 15.7814 90.4621L16.8978 84.8877L14.5605 86.4887C12.8795 87.6401 11.1608 88.8285 9.99704 90.4962C8.83325 92.1639 8.32553 94.4406 9.26032 96.2452" fill="#BBBBBB"/>
<path d="M9.59734 103.495C9.30316 101.363 9.00048 99.2029 9.20733 97.0478C9.39064 95.1339 9.97761 93.2649 11.1726 91.7317C11.8069 90.9197 12.5787 90.2239 13.4534 89.6756C13.6814 89.5325 13.8913 89.8919 13.6643 90.0345C12.1508 90.986 10.9802 92.391 10.3212 94.047C9.59344 95.8884 9.47658 97.8959 9.60194 99.8521C9.67772 101.035 9.83874 102.21 10.0005 103.384C10.0132 103.437 10.0053 103.493 9.97816 103.541C9.95106 103.588 9.90685 103.623 9.85448 103.64C9.80106 103.654 9.74411 103.647 9.696 103.62C9.64789 103.592 9.61249 103.548 9.59749 103.495L9.59734 103.495Z" fill="#DADADA"/>
<path d="M11.7148 100.073C12.0188 100.532 12.4366 100.906 12.928 101.159C13.4195 101.411 13.968 101.534 14.5207 101.514C15.9415 101.447 17.1255 100.461 18.1912 99.5242L21.3441 96.7549L19.2575 96.6556C17.7569 96.5841 16.2176 96.517 14.7883 96.9779C13.3591 97.4388 12.0409 98.5462 11.7796 100.018" fill="#BBBBBB"/>
<path d="M8.76577 104.72C10.1821 102.227 11.8248 99.4563 14.7602 98.5707C15.5763 98.3253 16.4321 98.2374 17.2814 98.3117C17.5491 98.3347 17.4822 98.7452 17.2151 98.7223C15.7914 98.6047 14.3705 98.9787 13.1915 99.7813C12.057 100.549 11.1736 101.618 10.426 102.75C9.968 103.444 9.55778 104.167 9.14757 104.889C9.01649 105.12 8.63316 104.953 8.76577 104.72Z" fill="#DADADA"/>
<path d="M122.092 73.9439H44.0086C43.768 73.9436 43.5374 73.8484 43.3672 73.6792C43.1971 73.5099 43.1014 73.2804 43.1011 73.0411V0.902855C43.1014 0.6635 43.1971 0.434036 43.3672 0.264786C43.5374 0.0955355 43.768 0.000312898 44.0086 0H122.092C122.333 0.000312898 122.564 0.0955355 122.734 0.264786C122.904 0.434036 123 0.6635 123 0.902855V73.0409C123 73.2803 122.904 73.5098 122.734 73.679C122.564 73.8483 122.333 73.9435 122.092 73.9438V73.9439Z" fill="white"/>
<path d="M122.092 73.9439H44.0086C43.768 73.9436 43.5374 73.8484 43.3672 73.6792C43.1971 73.5099 43.1014 73.2804 43.1011 73.0411V0.902855C43.1014 0.6635 43.1971 0.434036 43.3672 0.264786C43.5374 0.0955355 43.768 0.000312898 44.0086 0H122.092C122.333 0.000312898 122.564 0.0955355 122.734 0.264786C122.904 0.434036 123 0.6635 123 0.902855V73.0409C123 73.2803 122.904 73.5098 122.734 73.679C122.564 73.8483 122.333 73.9435 122.092 73.9438V73.9439ZM44.0086 0.360431C43.8644 0.360742 43.7262 0.417867 43.6243 0.519301C43.5223 0.620735 43.4649 0.758221 43.4646 0.901671V73.0409C43.4649 73.1844 43.5223 73.3219 43.6243 73.4233C43.7262 73.5247 43.8644 73.5818 44.0086 73.5822H122.092C122.237 73.5819 122.375 73.5248 122.477 73.4233C122.579 73.3219 122.636 73.1844 122.636 73.0409V0.902855C122.636 0.759405 122.579 0.62192 122.477 0.520486C122.375 0.419051 122.237 0.361927 122.092 0.361615L44.0086 0.360431Z" fill="#DADADA"/>
<path d="M34.5236 63.3015C34.5083 62.9801 34.4223 62.6659 34.2717 62.3811C34.1211 62.0963 33.9096 61.8478 33.6521 61.6531C33.3945 61.4584 33.0972 61.3222 32.781 61.2542C32.4649 61.1862 32.1376 61.188 31.8222 61.2594L28.8961 57.1572L25.9565 58.3181L30.1705 64.0535C30.3262 64.5727 30.668 65.0169 31.131 65.3022C31.5941 65.5874 32.1462 65.6937 32.6828 65.601C33.2193 65.5083 33.7031 65.223 34.0424 64.7992C34.3816 64.3754 34.5528 63.8425 34.5236 63.3015H34.5236Z" fill="#A0616A"/>
<path d="M28.821 62.9975L19.9673 51.5711L23.2847 41.1991C23.5278 38.5914 25.1681 37.8633 25.2379 37.8335L25.3443 37.7881L28.2311 45.4464L26.1115 51.0693L31.3139 59.7736L28.821 62.9975Z" fill="#E679A2"/>
<path d="M59.5684 27.7739C59.2475 27.8139 58.9392 27.9235 58.6654 28.0949C58.3916 28.2662 58.159 28.4952 57.9837 28.7657C57.8085 29.0362 57.6951 29.3417 57.6514 29.6605C57.6076 29.9793 57.6347 30.3039 57.7307 30.6112L53.8457 33.8305L55.2365 36.6563L60.6587 32.0333C61.1669 31.8387 61.5857 31.4654 61.8358 30.9841C62.0858 30.5027 62.1497 29.9469 62.0153 29.4219C61.8809 28.8969 61.5576 28.4391 61.1066 28.1354C60.6557 27.8316 60.1083 27.703 59.5684 27.7739V27.7739Z" fill="#A0616A"/>
<path d="M59.7046 33.4538L48.9376 43.1187L38.2863 40.6303C35.654 40.5908 34.7975 39.0202 34.7623 38.9533L34.7085 38.8512L42.1605 35.3959L47.9596 37.0634L56.2809 31.2305L59.7046 33.4538Z" fill="#E679A2"/>
<path d="M41.0547 102.161L43.9476 102.161L45.3237 91.0605L41.0542 91.0607L41.0547 102.161Z" fill="#A0616A"/>
<path d="M49.5264 104.833L40.4345 104.833L40.4343 101.339L46.9754 101.339C47.652 101.339 48.3008 101.606 48.7791 102.082C49.2575 102.558 49.5263 103.203 49.5263 103.876L49.5264 104.833L49.5264 104.833Z" fill="#292828"/>
<path d="M29.4921 102.161L32.385 102.161L33.7612 91.0605L29.4917 91.0607L29.4921 102.161Z" fill="#A0616A"/>
<path d="M37.9644 104.833L28.8725 104.833L28.8723 101.339L35.4134 101.339C35.7484 101.339 36.0801 101.404 36.3896 101.532C36.6991 101.659 36.9803 101.846 37.2171 102.082C37.454 102.317 37.6419 102.597 37.7701 102.905C37.8983 103.213 37.9643 103.543 37.9643 103.876L37.9644 104.833Z" fill="#292828"/>
<path d="M28.4634 61.6436L28.6993 78.0755L28.9354 99.6717L34.1265 99.2023L36.7222 69.3902L40.0258 99.2023H45.385L45.9248 69.1554L44.0371 62.5826L28.4634 61.6436Z" fill="#292828"/>
<path d="M38.6237 63.85C32.9753 63.8505 27.776 61.3072 27.7059 61.2723L27.6476 61.2433L27.1735 49.9268C27.0361 49.5269 24.3295 41.636 23.8711 39.1279C23.4066 36.5869 30.1379 34.3567 30.9553 34.096L31.1408 32.0518L38.684 31.2432L39.64 33.8588L42.3462 34.8683C42.653 34.9828 42.9069 35.2053 43.0598 35.4936C43.2127 35.7819 43.254 36.116 43.1758 36.4326L41.6718 42.5174L45.3452 62.6486L44.5543 62.6827C42.6587 63.5344 40.6128 63.8499 38.6237 63.85Z" fill="#E679A2"/>
<path d="M37.8127 29.2866C40.4446 27.8553 41.4119 24.5724 39.9731 21.9541C38.5344 19.3358 35.2344 18.3736 32.6025 19.8049C29.9705 21.2362 29.0033 24.519 30.442 27.1373C31.8808 29.7556 35.1807 30.7179 37.8127 29.2866Z" fill="#A0616A"/>
<path d="M30.8091 29.8288C31.8441 30.9256 33.7663 30.3368 33.9012 28.8384C33.9118 28.722 33.911 28.605 33.8989 28.4888C33.8293 27.825 33.4438 27.2224 33.5362 26.5216C33.557 26.3472 33.6224 26.181 33.7259 26.0387C34.5507 24.94 36.4869 26.5302 37.2653 25.5355C37.7426 24.9256 37.1815 23.9653 37.5478 23.2836C38.0312 22.3839 39.4631 22.8278 40.3611 22.335C41.3601 21.7868 41.3004 20.2619 40.6427 19.3344C39.8407 18.2032 38.4344 17.5996 37.0457 17.5126C35.657 17.4256 34.2779 17.7991 32.9814 18.3017C31.5083 18.8728 30.0475 19.6621 29.141 20.9507C28.0386 22.5177 27.9325 24.6244 28.4838 26.4568C28.8192 27.5714 29.9639 28.9331 30.8091 29.8288Z" fill="#292828"/>
<path d="M69.012 105.025H0.18066C0.132746 105.025 0.0867913 105.007 0.0529111 104.973C0.0190308 104.939 0 104.893 0 104.846C0 104.798 0.0190308 104.752 0.0529111 104.719C0.0867913 104.685 0.132746 104.666 0.18066 104.666H69.012C69.0599 104.666 69.1058 104.685 69.1397 104.719C69.1736 104.752 69.1926 104.798 69.1926 104.846C69.1926 104.893 69.1736 104.939 69.1397 104.973C69.1058 105.007 69.0599 105.025 69.012 105.025Z" fill="#DADADA"/>
</g>
<path d="M60.5 23.5H61.5V23H62C62.275 23 62.5 22.775 62.5 22.5V21C62.5 20.725 62.275 20.5 62 20.5H60.5V20H62.5V19H61.5V18.5H60.5V19H60C59.725 19 59.5 19.225 59.5 19.5V21C59.5 21.275 59.725 21.5 60 21.5H61.5V22H59.5V23H60.5V23.5ZM65 17H57C56.445 17 56.005 17.445 56.005 18L56 24C56 24.555 56.445 25 57 25H65C65.555 25 66 24.555 66 24V18C66 17.445 65.555 17 65 17ZM65 24H57V18H65V24Z" fill="white"/>
<path d="M98 28.7222H92.5556C91.6838 27.2056 90.4825 25.9028 89.0294 24.9111L92.1875 21.7417L89.4556 19L85.2513 23.2194C84.36 23.0056 83.4494 22.8889 82.5 22.8889C81.5506 22.8889 80.64 23.0056 79.7681 23.2194L75.5444 19L72.8125 21.7417L75.9512 24.9111C74.5175 25.9028 73.3162 27.2056 72.4444 28.7222H67V32.6111H71.0494C70.9525 33.2528 70.875 33.8944 70.875 34.5556V36.5H67V40.3889H70.875V42.3333C70.875 42.9944 70.9525 43.6361 71.0494 44.2778H67V48.1667H72.4444C74.4594 51.6472 78.1987 54 82.5 54C86.8013 54 90.5406 51.6472 92.5556 48.1667H98V44.2778H93.9506C94.0475 43.6361 94.125 42.9944 94.125 42.3333V40.3889H98V36.5H94.125V34.5556C94.125 33.8944 94.0475 33.2528 93.9506 32.6111H98V28.7222ZM90.25 36.5V42.3333C90.25 42.7611 90.1919 43.2472 90.1144 43.6944L89.9206 44.9583L89.2038 46.2222C87.8088 48.6333 85.2512 50.1111 82.5 50.1111C79.7488 50.1111 77.1912 48.6139 75.7962 46.2222L75.0794 44.9778L74.8856 43.7139C74.8081 43.2667 74.75 42.7806 74.75 42.3333V34.5556C74.75 34.1083 74.8081 33.6222 74.8856 33.1944L75.0794 31.9306L75.7962 30.6667C76.3775 29.6556 77.1912 28.7806 78.1406 28.1194L79.245 27.3611L80.6788 27.0111C81.2794 26.8556 81.8994 26.7778 82.5 26.7778C83.12 26.7778 83.7206 26.8556 84.3406 27.0111L85.6581 27.3222L86.84 28.1389C87.8087 28.8 88.6031 29.6556 89.1844 30.6861L89.9206 31.95L90.1144 33.2139C90.1919 33.6417 90.25 34.1278 90.25 34.5556V36.5ZM78.625 40.3889H86.375V44.2778H78.625V40.3889ZM78.625 32.6111H86.375V36.5H78.625V32.6111Z" fill="#616161"/>
<defs>
<clipPath id="clip0_1836_18152">
<rect width="123" height="105" fill="white"/>
</clipPath>
</defs>
</svg>
