<svg width="123" height="105" viewBox="0 0 123 105" fill="none" xmlns="http://www.w3.org/2000/svg">
<g clip-path="url(#clip0)">
<path d="M9.23622 96.3574C9.94498 96.6052 10.706 96.6673 11.4458 96.5377C12.1857 96.408 12.8796 96.091 13.4605 95.6171C14.9401 94.3817 15.4041 92.3469 15.7814 90.4623L16.8978 84.8879L14.5605 86.489C12.8795 87.6404 11.1608 88.8287 9.99704 90.4964C8.83325 92.1641 8.32553 94.4408 9.26032 96.2454" fill="#BBBBBB"/>
<path d="M9.59734 103.494C9.30316 101.362 9.00048 99.2024 9.20733 97.0473C9.39064 95.1334 9.97761 93.2644 11.1726 91.7313C11.8069 90.9192 12.5787 90.2234 13.4534 89.6751C13.6814 89.532 13.8913 89.8915 13.6643 90.0341C12.1508 90.9855 10.9802 92.3905 10.3212 94.0465C9.59344 95.8879 9.47658 97.8954 9.60194 99.8516C9.67772 101.035 9.83874 102.21 10.0005 103.384C10.0132 103.437 10.0053 103.493 9.97816 103.54C9.95106 103.588 9.90685 103.623 9.85448 103.639C9.80106 103.654 9.74411 103.646 9.696 103.619C9.64789 103.592 9.61249 103.547 9.59749 103.494L9.59734 103.494Z" fill="#DADADA"/>
<path d="M11.7148 100.073C12.0188 100.533 12.4366 100.907 12.928 101.159C13.4195 101.412 13.968 101.534 14.5207 101.514C15.9415 101.447 17.1255 100.461 18.1912 99.5247L21.3441 96.7554L19.2575 96.6561C17.7569 96.5846 16.2176 96.5175 14.7883 96.9784C13.3591 97.4392 12.0409 98.5467 11.7796 100.018" fill="#BBBBBB"/>
<path d="M8.76577 104.72C10.1821 102.227 11.8248 99.4563 14.7602 98.5707C15.5763 98.3253 16.4321 98.2374 17.2814 98.3117C17.5491 98.3347 17.4822 98.7452 17.2151 98.7223C15.7914 98.6047 14.3705 98.9787 13.1915 99.7813C12.057 100.549 11.1736 101.618 10.426 102.75C9.968 103.444 9.55778 104.167 9.14757 104.889C9.01649 105.12 8.63316 104.953 8.76577 104.72Z" fill="#DADADA"/>
<path d="M122.092 73.9439H44.0086C43.768 73.9436 43.5374 73.8484 43.3672 73.6792C43.1971 73.5099 43.1014 73.2804 43.1011 73.0411V0.902855C43.1014 0.6635 43.1971 0.434036 43.3672 0.264786C43.5374 0.0955355 43.768 0.000312898 44.0086 0H122.092C122.333 0.000312898 122.564 0.0955355 122.734 0.264786C122.904 0.434036 123 0.6635 123 0.902855V73.0409C123 73.2803 122.904 73.5098 122.734 73.679C122.564 73.8483 122.333 73.9435 122.092 73.9438V73.9439ZM44.0086 0.360431C43.8644 0.360742 43.7262 0.417867 43.6243 0.519301C43.5223 0.620735 43.4649 0.758221 43.4646 0.901671V73.0409C43.4649 73.1844 43.5223 73.3219 43.6243 73.4233C43.7262 73.5247 43.8644 73.5818 44.0086 73.5822H122.092C122.237 73.5819 122.375 73.5248 122.477 73.4233C122.579 73.3219 122.636 73.1844 122.636 73.0409V0.902855C122.636 0.759405 122.579 0.62192 122.477 0.520486C122.375 0.419051 122.237 0.361927 122.092 0.361615L44.0086 0.360431Z" fill="#DADADA"/>
<path d="M34.5236 63.3015C34.5083 62.9801 34.4223 62.6659 34.2717 62.3811C34.1211 62.0963 33.9096 61.8478 33.6521 61.6531C33.3945 61.4584 33.0972 61.3222 32.781 61.2542C32.4649 61.1862 32.1376 61.188 31.8222 61.2594L28.8961 57.1572L25.9565 58.3181L30.1705 64.0535C30.3262 64.5727 30.668 65.0169 31.131 65.3022C31.5941 65.5874 32.1462 65.6937 32.6828 65.601C33.2193 65.5083 33.7031 65.223 34.0424 64.7992C34.3816 64.3754 34.5528 63.8425 34.5236 63.3015H34.5236Z" fill="#A0616A"/>
<path d="M28.821 62.9974L19.9673 51.571L23.2847 41.199C23.5278 38.5913 25.1681 37.8632 25.2379 37.8334L25.3443 37.788L28.2311 45.4463L26.1115 51.0692L31.3139 59.7735L28.821 62.9974Z" fill="#E679A2"/>
<path d="M59.5684 27.7738C59.2475 27.8138 58.9392 27.9234 58.6654 28.0947C58.3916 28.2661 58.159 28.4951 57.9837 28.7656C57.8085 29.0361 57.6951 29.3415 57.6514 29.6604C57.6076 29.9792 57.6347 30.3037 57.7307 30.611L53.8457 33.8304L55.2365 36.6562L60.6587 32.0332C61.1669 31.8386 61.5857 31.4652 61.8358 30.9839C62.0858 30.5026 62.1497 29.9468 62.0153 29.4218C61.8809 28.8967 61.5576 28.439 61.1066 28.1353C60.6557 27.8315 60.1083 27.7029 59.5684 27.7738Z" fill="#A0616A"/>
<path d="M59.7046 33.4534L48.9376 43.1183L38.2863 40.6299C35.654 40.5904 34.7975 39.0198 34.7623 38.9529L34.7085 38.8508L42.1605 35.3955L47.9596 37.063L56.2809 31.2301L59.7046 33.4534Z" fill="#E679A2"/>
<path d="M41.0547 102.161L43.9476 102.161L45.3237 91.0608L41.0542 91.061L41.0547 102.161Z" fill="#A0616A"/>
<path d="M49.5264 104.833L40.4345 104.834L40.4343 101.339L46.9754 101.339C47.652 101.339 48.3008 101.606 48.7791 102.082C49.2575 102.558 49.5263 103.203 49.5263 103.876L49.5264 104.833L49.5264 104.833Z" fill="#292828"/>
<path d="M29.4921 102.161L32.385 102.161L33.7612 91.0608L29.4917 91.061L29.4921 102.161Z" fill="#A0616A"/>
<path d="M37.9644 104.833L28.8725 104.834L28.8723 101.339L35.4134 101.339C35.7484 101.339 36.0801 101.404 36.3896 101.532C36.6991 101.659 36.9803 101.846 37.2171 102.082C37.454 102.318 37.6419 102.597 37.7701 102.905C37.8983 103.213 37.9643 103.543 37.9643 103.876L37.9644 104.833Z" fill="#292828"/>
<path d="M28.4634 61.6433L28.6993 78.0752L28.9354 99.6715L34.1265 99.202L36.7222 69.3899L40.0258 99.202H45.385L45.9248 69.1552L44.0371 62.5824L28.4634 61.6433Z" fill="#292828"/>
<path d="M38.6237 63.85C32.9753 63.8505 27.776 61.3072 27.7059 61.2723L27.6476 61.2433L27.1735 49.9268C27.0361 49.5269 24.3295 41.636 23.8711 39.1279C23.4066 36.5869 30.1379 34.3567 30.9553 34.096L31.1408 32.0518L38.684 31.2432L39.64 33.8588L42.3462 34.8683C42.653 34.9828 42.9069 35.2053 43.0598 35.4936C43.2127 35.7819 43.254 36.116 43.1758 36.4326L41.6718 42.5174L45.3452 62.6486L44.5543 62.6827C42.6587 63.5344 40.6128 63.8499 38.6237 63.85Z" fill="#E679A2"/>
<path d="M37.8127 29.2865C40.4446 27.8552 41.4119 24.5723 39.9731 21.954C38.5344 19.3357 35.2344 18.3735 32.6025 19.8048C29.9705 21.2361 29.0033 24.5189 30.442 27.1372C31.8808 29.7555 35.1807 30.7178 37.8127 29.2865Z" fill="#A0616A"/>
<path d="M30.8091 29.8288C31.8441 30.9256 33.7663 30.3368 33.9012 28.8384C33.9118 28.722 33.911 28.605 33.8989 28.4888C33.8293 27.825 33.4438 27.2224 33.5362 26.5216C33.557 26.3472 33.6224 26.181 33.7259 26.0387C34.5507 24.94 36.4869 26.5302 37.2653 25.5355C37.7426 24.9256 37.1815 23.9653 37.5478 23.2836C38.0312 22.3839 39.4631 22.8278 40.3611 22.335C41.3602 21.7868 41.3004 20.2619 40.6427 19.3344C39.8407 18.2032 38.4344 17.5996 37.0457 17.5126C35.657 17.4256 34.2779 17.7991 32.9814 18.3017C31.5083 18.8728 30.0475 19.6621 29.141 20.9507C28.0386 22.5177 27.9325 24.6244 28.4838 26.4568C28.8192 27.5714 29.9639 28.9331 30.8091 29.8288Z" fill="#292828"/>
<path d="M69.012 105.025H0.18066C0.132746 105.025 0.0867913 105.006 0.0529111 104.973C0.0190308 104.939 0 104.893 0 104.845C0 104.798 0.0190308 104.752 0.0529111 104.718C0.0867913 104.685 0.132746 104.666 0.18066 104.666H69.012C69.0599 104.666 69.1058 104.685 69.1397 104.718C69.1736 104.752 69.1926 104.798 69.1926 104.845C69.1926 104.893 69.1736 104.939 69.1397 104.973C69.1058 105.006 69.0599 105.025 69.012 105.025Z" fill="#DADADA"/>
</g>
<path d="M95 38.9993H93.64L89.64 42.9993H93.46L97 46.9993H69L72.56 42.9993H76.66L72.66 38.9993H71L65 44.9993V52.9994C65 55.1994 66.78 56.9994 68.98 56.9994H97C99.2 56.9994 101 55.2194 101 52.9994V44.9993L95 38.9993ZM97 52.9994H69V50.9994H97V52.9994ZM81.68 43.0394C82.46 43.8194 83.72 43.8194 84.5 43.0394L97.22 30.3193C98 29.5393 98 28.2793 97.22 27.4993L87.32 17.5993C86.56 16.7993 85.3 16.7993 84.52 17.5793L71.78 30.3193C71 31.0993 71 32.3593 71.78 33.1393L81.68 43.0394ZM85.92 21.8193L93 28.8993L83.1 38.7993L76.02 31.7193L85.92 21.8193Z" fill="#616161"/>
<defs>
<clipPath id="clip0">
<rect width="123" height="105" fill="white"/>
</clipPath>
</defs>
</svg>
