<svg width="123" height="105" viewBox="0 0 123 105" fill="none" xmlns="http://www.w3.org/2000/svg">
<g clip-path="url(#clip0_3484_42559)">
<path d="M9.23671 96.3574C9.94547 96.6053 10.7064 96.6674 11.4463 96.5377C12.1862 96.4081 12.88 96.0911 13.461 95.6172C14.9406 94.3817 15.4046 92.347 15.7819 90.4624L16.8983 84.888L14.561 86.489C12.88 87.6404 11.1613 88.8288 9.99752 90.4965C8.83374 92.1642 8.32602 94.4409 9.26081 96.2455" fill="#BBBBBB"/>
<path d="M9.59685 103.494C9.30267 101.362 8.99999 99.2025 9.20684 97.0475C9.39015 95.1335 9.97713 93.2645 11.1721 91.7314C11.8064 90.9193 12.5782 90.2235 13.4529 89.6753C13.6809 89.5321 13.8908 89.8916 13.6638 90.0342C12.1503 90.9856 10.9798 92.3906 10.3208 94.0466C9.59296 95.8881 9.47609 97.8955 9.60145 99.8517C9.67723 101.035 9.83825 102.21 9.99997 103.384C10.0127 103.437 10.0048 103.493 9.97767 103.54C9.95057 103.588 9.90637 103.623 9.85399 103.639C9.80057 103.654 9.74362 103.646 9.69551 103.619C9.6474 103.592 9.612 103.547 9.597 103.494L9.59685 103.494Z" fill="#DADADA"/>
<path d="M11.7148 100.073C12.0188 100.533 12.4366 100.907 12.928 101.159C13.4195 101.412 13.968 101.534 14.5207 101.514C15.9415 101.447 17.1255 100.461 18.1912 99.5247L21.3441 96.7553L19.2575 96.656C17.7569 96.5845 16.2176 96.5174 14.7883 96.9783C13.3591 97.4392 12.0409 98.5466 11.7796 100.018" fill="#BBBBBB"/>
<path d="M8.76577 104.72C10.1821 102.227 11.8248 99.4564 14.7602 98.5708C15.5763 98.3254 16.4321 98.2375 17.2814 98.3118C17.5491 98.3348 17.4822 98.7453 17.2151 98.7224C15.7914 98.6048 14.3705 98.9788 13.1915 99.7814C12.057 100.55 11.1736 101.618 10.426 102.75C9.968 103.444 9.55778 104.167 9.14757 104.889C9.01649 105.12 8.63316 104.954 8.76577 104.72Z" fill="#DADADA"/>
<path d="M122.093 73.9439H44.0091C43.7685 73.9436 43.5379 73.8484 43.3677 73.6792C43.1976 73.5099 43.1019 73.2804 43.1016 73.0411V0.902855C43.1019 0.6635 43.1976 0.434036 43.3677 0.264786C43.5379 0.0955355 43.7685 0.000312898 44.0091 0H122.093C122.333 0.000312898 122.564 0.0955355 122.734 0.264786C122.904 0.434036 123 0.6635 123 0.902855V73.0409C123 73.2803 122.904 73.5098 122.734 73.679C122.564 73.8483 122.333 73.9435 122.093 73.9438V73.9439ZM44.0091 0.360431C43.8649 0.360742 43.7267 0.417867 43.6248 0.519301C43.5228 0.620735 43.4654 0.758221 43.4651 0.901671V73.0409C43.4654 73.1844 43.5228 73.3219 43.6248 73.4233C43.7267 73.5247 43.8649 73.5818 44.0091 73.5822H122.093C122.237 73.5819 122.375 73.5248 122.477 73.4233C122.579 73.3219 122.637 73.1844 122.637 73.0409V0.902855C122.637 0.759405 122.579 0.62192 122.477 0.520486C122.375 0.419051 122.237 0.361927 122.093 0.361615L44.0091 0.360431Z" fill="#DADADA"/>
<path d="M34.5241 63.3015C34.5087 62.98 34.4228 62.6658 34.2722 62.381C34.1216 62.0962 33.9101 61.8477 33.6526 61.653C33.395 61.4583 33.0977 61.3222 32.7815 61.2542C32.4654 61.1862 32.1381 61.1879 31.8227 61.2594L28.8966 57.1572L25.957 58.3181L30.171 64.0535C30.3267 64.5726 30.6685 65.0169 31.1315 65.3021C31.5946 65.5873 32.1467 65.6936 32.6833 65.6009C33.2198 65.5082 33.7036 65.223 34.0429 64.7992C34.3821 64.3753 34.5533 63.8425 34.5241 63.3015H34.5241Z" fill="#A0616A"/>
<path d="M28.8205 62.9974L19.9668 51.5711L23.2842 41.199C23.5273 38.5914 25.1676 37.8632 25.2374 37.8335L25.3438 37.788L28.2306 45.4464L26.111 51.0692L31.3134 59.7736L28.8205 62.9974Z" fill="#E679A2"/>
<path d="M59.5684 27.7738C59.2475 27.8138 58.9392 27.9234 58.6654 28.0947C58.3916 28.2661 58.159 28.4951 57.9837 28.7656C57.8085 29.0361 57.6951 29.3415 57.6514 29.6604C57.6076 29.9792 57.6347 30.3037 57.7307 30.611L53.8457 33.8304L55.2365 36.6562L60.6587 32.0332C61.1669 31.8386 61.5857 31.4652 61.8358 30.9839C62.0858 30.5026 62.1497 29.9468 62.0153 29.4218C61.8809 28.8967 61.5576 28.439 61.1066 28.1353C60.6556 27.8315 60.1083 27.7029 59.5684 27.7738Z" fill="#A0616A"/>
<path d="M59.7041 33.4534L48.9371 43.1183L38.2858 40.6299C35.6536 40.5904 34.797 39.0198 34.7618 38.9529L34.708 38.8508L42.16 35.3955L47.9591 37.063L56.2804 31.23L59.7041 33.4534Z" fill="#E679A2"/>
<path d="M41.0543 102.161L43.9472 102.161L45.3232 91.0607L41.0537 91.0608L41.0543 102.161Z" fill="#A0616A"/>
<path d="M49.5264 104.833L40.4345 104.834L40.4343 101.339L46.9754 101.339C47.652 101.339 48.3008 101.606 48.7791 102.082C49.2575 102.558 49.5263 103.203 49.5263 103.876L49.5264 104.833L49.5264 104.833Z" fill="#292828"/>
<path d="M29.4925 102.161L32.3855 102.161L33.7617 91.0607L29.4922 91.0608L29.4925 102.161Z" fill="#A0616A"/>
<path d="M37.9639 104.833L28.872 104.834L28.8718 101.339L35.413 101.339C35.7479 101.339 36.0796 101.404 36.3891 101.532C36.6986 101.659 36.9798 101.846 37.2166 102.082C37.4535 102.318 37.6414 102.597 37.7696 102.905C37.8978 103.213 37.9638 103.543 37.9638 103.876L37.9639 104.833Z" fill="#292828"/>
<path d="M28.4629 61.6434L28.6988 78.0753L28.935 99.6715L34.126 99.2021L36.7217 69.39L40.0253 99.2021H45.3846L45.9244 69.1553L44.0366 62.5824L28.4629 61.6434Z" fill="#292828"/>
<path d="M38.6242 63.85C32.9758 63.8505 27.7765 61.3072 27.7063 61.2723L27.648 61.2433L27.174 49.9268C27.0366 49.5269 24.33 41.636 23.8716 39.1279C23.4071 36.5869 30.1384 34.3567 30.9558 34.096L31.1413 32.0518L38.6845 31.2432L39.6405 33.8588L42.3467 34.8683C42.6535 34.9828 42.9074 35.2053 43.0603 35.4936C43.2132 35.7819 43.2545 36.116 43.1763 36.4326L41.6723 42.5174L45.3456 62.6486L44.5548 62.6827C42.6592 63.5344 40.6133 63.8499 38.6242 63.85Z" fill="#E679A2"/>
<path d="M37.8127 29.2865C40.4446 27.8552 41.4119 24.5723 39.9731 21.954C38.5344 19.3357 35.2344 18.3735 32.6025 19.8048C29.9705 21.2361 29.0033 24.5189 30.442 27.1372C31.8808 29.7555 35.1807 30.7178 37.8127 29.2865Z" fill="#A0616A"/>
<path d="M30.8086 29.8288C31.8436 30.9256 33.7658 30.3368 33.9007 28.8384C33.9113 28.722 33.9105 28.605 33.8984 28.4888C33.8288 27.825 33.4433 27.2224 33.5357 26.5216C33.5566 26.3472 33.6219 26.181 33.7254 26.0387C34.5502 24.94 36.4864 26.5302 37.2648 25.5355C37.7421 24.9256 37.181 23.9653 37.5473 23.2836C38.0308 22.3839 39.4626 22.8278 40.3606 22.335C41.3597 21.7868 41.2999 20.2619 40.6423 19.3344C39.8402 18.2032 38.434 17.5996 37.0452 17.5126C35.6565 17.4256 34.2774 17.7991 32.9809 18.3017C31.5078 18.8728 30.047 19.6621 29.1405 20.9507C28.0381 22.5177 27.932 24.6244 28.4833 26.4568C28.8187 27.5715 29.9634 28.9331 30.8086 29.8288Z" fill="#292828"/>
<path d="M69.012 105.025H0.18066C0.132746 105.025 0.0867913 105.006 0.0529111 104.973C0.0190308 104.939 0 104.893 0 104.846C0 104.798 0.0190308 104.752 0.0529111 104.719C0.0867913 104.685 0.132746 104.666 0.18066 104.666H69.012C69.0599 104.666 69.1058 104.685 69.1397 104.719C69.1736 104.752 69.1926 104.798 69.1926 104.846C69.1926 104.893 69.1736 104.939 69.1397 104.973C69.1058 105.006 69.0599 105.025 69.012 105.025Z" fill="#DADADA"/>
</g>
<path d="M77.02 41H63V45H77.02V51L85 43L77.02 35V41ZM88.98 39V33H103V29H88.98V23L81 31L88.98 39Z" fill="black" fill-opacity="0.54"/>
<defs>
<clipPath id="clip0_3484_42559">
<rect width="123" height="105" fill="white"/>
</clipPath>
</defs>
</svg>
