<svg width="660" height="200" viewBox="0 0 660 200" fill="none" xmlns="http://www.w3.org/2000/svg">
<path d="M205.537 123.393C205.537 123.393 199.813 123.393 199.813 120.643V84.3443C199.813 84.3443 205.537 84.3443 205.537 87.0935V119.598H222.432C227.065 119.598 228.287 118.771 228.287 118.771C228.287 120.422 227.677 123.393 224.885 123.393H205.537Z" fill="white"/>
<path d="M346.927 108.433L341.544 94.6823C339.704 90.0091 338.274 86.1599 337.116 84.7293C337.116 84.7293 337.73 84.5639 338.887 84.5639C344.336 84.5639 345.7 89.5131 347.336 93.6397L352.852 107.553C355.78 115.032 358.985 117.727 358.985 117.727C358.985 117.727 362.188 115.032 365.115 107.553L370.634 93.6397C372.27 89.5131 373.63 84.5639 379.08 84.5639C380.242 84.5639 380.852 84.7293 380.852 84.7293C379.695 86.1599 378.263 90.0091 376.424 94.6823L371.041 108.433C366.613 119.763 358.985 124.324 358.985 124.324C358.985 124.324 351.355 119.763 346.927 108.433Z" fill="white"/>
<path d="M296.159 100.459L301.542 114.209C303.382 118.884 304.812 122.735 305.97 124.164C305.97 124.164 305.355 124.325 304.198 124.325C298.75 124.325 297.386 119.379 295.75 115.251L290.234 101.338C287.306 93.8593 284.101 91.1647 284.101 91.1647C284.101 91.1647 280.898 93.8593 277.97 101.338L272.452 115.251C270.816 119.379 269.456 124.325 264.005 124.325C262.844 124.325 262.233 124.164 262.233 124.164C263.391 122.735 264.824 118.884 266.661 114.209L272.045 100.459C276.473 89.1288 284.101 84.5649 284.101 84.5649C284.101 84.5649 291.731 89.1288 296.159 100.459Z" fill="white"/>
<path d="M451.066 97.1595C451.066 91.4383 448.953 88.0277 437.917 88.0277C427.019 88.0277 424.905 91.4383 424.905 97.1595V111.127C424.905 116.846 427.019 120.256 437.917 120.256C448.953 120.256 451.066 116.846 451.066 111.127V97.1595ZM456.789 111.843C456.789 119.487 450.791 124.051 437.986 124.051C425.108 124.051 419.182 119.487 419.182 111.843V96.4435C419.182 88.7997 425.108 84.2332 437.986 84.2332C450.791 84.2332 456.789 88.7997 456.789 96.4435V111.843Z" fill="white"/>
<path d="M506.77 88.689V101.998H515.623C522.912 101.998 525.435 99.5781 525.435 95.0128C525.435 90.3383 522.098 88.689 515.082 88.689H506.77ZM517.33 105.462C526.731 108.431 530.612 119.598 533.952 123.665C533.952 123.665 533.131 123.833 531.975 123.833C530.069 123.833 527.138 123.336 525.367 120.696C519.984 112.611 517.464 106.729 506.77 105.627V123.941C506.77 123.941 501.045 123.888 501.045 121.191V84.8944H515.082C524.411 84.8944 531.159 87.2584 531.159 94.1875V95.8368C531.159 102.053 525.367 105.462 517.33 105.462Z" fill="white"/>
<path d="M604.984 97.1595C604.984 91.4383 602.873 88.0277 591.836 88.0277C580.938 88.0277 578.823 91.4383 578.823 97.1595V111.127C578.823 116.846 580.938 120.256 591.836 120.256C602.873 120.256 604.984 116.846 604.984 111.127V97.1595ZM610.708 111.843C610.708 119.487 604.71 124.051 591.905 124.051C579.026 124.051 573.101 119.487 573.101 111.843V96.4435C573.101 88.7997 579.026 84.2332 591.905 84.2332C604.71 84.2332 610.708 88.7997 610.708 96.4435V111.843Z" fill="white"/>
<path d="M150.339 146.548C144.246 151.023 136.858 154.359 128.386 156.465L128.023 156.517C127.462 156.587 126.799 156.659 126.117 156.659C117.629 156.659 110.72 151.762 110.72 145.742V121.698C132.146 114.581 156.865 117.498 174.028 129.146L150.339 146.548ZM87.6298 155.821L87.3272 155.729C87.0498 155.645 86.7778 155.556 86.5045 155.467L85.9672 155.292C84.9525 154.973 83.9459 154.644 82.9579 154.281C82.7433 154.203 82.5326 154.116 82.322 154.032L81.9153 153.871C81.1366 153.567 80.3647 153.251 79.606 152.922L79.198 152.748C78.9354 152.638 78.6727 152.528 78.4181 152.411C78.1367 152.283 77.8634 152.147 77.5901 152.011L77.1048 151.772C76.1928 151.328 75.2888 150.874 74.4088 150.392L73.9302 150.134C73.6382 149.972 73.3502 149.798 73.0662 149.624L72.6742 149.388C71.8889 148.923 71.1209 148.439 70.3703 147.944L69.9889 147.695C69.777 147.556 69.5663 147.418 69.361 147.274C68.8063 146.892 68.2583 146.503 67.7223 146.104C67.4197 145.875 67.133 145.632 66.8464 145.39C66.6757 145.246 66.505 145.103 66.3317 144.96L65.6637 144.424C65.0757 143.958 64.4691 143.476 63.9278 142.971C63.5184 142.587 63.1425 142.176 62.7691 141.766C62.5692 141.547 62.3692 141.33 62.1652 141.114C62.0785 141.022 61.9892 140.93 61.8998 140.838C61.9438 140.855 61.9865 140.874 62.0305 140.889C62.5825 141.087 63.1651 141.243 63.8465 141.422C63.9358 141.447 64.0224 141.475 64.1118 141.505C64.2504 141.547 64.3878 141.591 64.5344 141.624C66.2824 142.03 68.0997 142.236 69.929 142.236C70.009 142.236 70.0863 142.222 70.1663 142.22V142.222C72.9142 142.222 78.0727 141.62 81.6006 139.126L93.631 130.334C94.7629 129.499 96.0482 128.646 97.5615 127.721C97.8842 127.522 98.2175 127.333 98.5522 127.144L98.8882 126.953C99.8495 126.397 100.809 125.876 101.744 125.402C102.283 125.129 102.827 124.861 103.376 124.602C104.313 124.164 105.265 123.753 106.227 123.357L106.692 123.161C107.033 123.017 107.372 122.876 107.716 122.741L107.719 145.743C107.719 146.516 107.805 147.298 107.973 148.066C107.997 148.17 108.035 148.271 108.072 148.374C108.095 148.426 108.113 148.479 108.129 148.532C108.279 149.091 108.452 149.686 108.707 150.251C108.775 150.403 108.864 150.547 108.953 150.691C109.001 150.771 109.051 150.85 109.093 150.934L109.217 151.164C109.421 151.547 109.624 151.926 109.879 152.286C109.987 152.439 110.113 152.583 110.241 152.727C110.312 152.806 110.381 152.886 110.449 152.967L110.644 153.21C110.893 153.524 111.145 153.835 111.435 154.127C111.589 154.28 111.76 154.421 111.933 154.561L112.425 154.987C112.717 155.248 113.013 155.511 113.341 155.751C113.536 155.891 113.744 156.019 113.954 156.145L114.577 156.536C114.889 156.743 115.205 156.947 115.546 157.128C115.782 157.253 116.034 157.363 116.288 157.471L116.993 157.787C117.325 157.945 117.658 158.104 118.016 158.235C118.092 158.263 118.17 158.291 118.249 158.316C107.887 159.469 97.3402 158.615 87.6298 155.821ZM51.8108 121.516C51.8041 121.477 51.7961 121.438 51.7908 121.398C51.6908 120.777 51.6254 120.252 51.5748 119.785C51.4881 118.874 51.4241 117.962 51.4241 117.044V50.1043C82.5086 50.6856 107.716 69.4717 107.716 92.1485V119.546C107.697 119.553 107.677 119.561 107.661 119.568L107.345 119.693C106.765 119.905 106.2 120.128 105.632 120.356C104.592 120.773 103.515 121.241 102.431 121.744L102.249 121.828C101.733 122.066 101.219 122.305 100.713 122.557C99.7815 123.022 98.7909 123.556 97.5922 124.24L97.0656 124.534C96.7469 124.712 96.4282 124.889 96.1189 125.078C94.6003 126.001 93.2497 126.898 91.9884 127.82L81.8473 135.262L81.842 135.257L80.8406 135.977C80.51 136.211 80.1487 136.41 79.786 136.61L79.4167 136.814C76.6208 138.394 73.3395 139.231 69.929 139.231C68.0717 139.231 66.2824 138.977 64.6091 138.534C64.4824 138.499 64.3424 138.478 64.2184 138.439C63.8158 138.325 63.4478 138.162 63.0611 138.023C55.144 134.897 52.6014 126.318 51.8108 121.516ZM177.483 127.909C160.097 115.136 133.35 111.405 110.72 118.554V92.1485C110.72 67.3011 83.4473 47.087 49.9255 47.087H48.4229V117.044C48.4229 127.376 53.3134 137.463 62.2385 145.491L62.3358 145.582C62.4718 145.706 62.6145 145.824 62.7585 145.942C62.8611 146.026 62.9665 146.111 63.0691 146.203C63.2758 146.379 63.4785 146.559 63.6784 146.738C64.0598 147.079 64.4451 147.419 64.8571 147.744C65.0304 147.882 65.2144 148.007 65.3984 148.134C65.5304 148.226 65.6637 148.315 65.7851 148.407C65.8557 148.462 65.9224 148.519 65.9904 148.576C66.0824 148.658 66.1771 148.738 66.2771 148.812L66.565 149.027C66.797 149.196 67.0384 149.363 67.273 149.523L67.5957 149.746C67.6877 149.811 67.7823 149.868 67.8823 149.927C67.9477 149.967 68.0157 150.006 68.077 150.05C68.613 150.412 69.149 150.768 69.6996 151.116C70.4649 151.603 71.2396 152.076 72.0356 152.532L72.6635 152.875H72.6662C73.0635 153.098 73.4595 153.316 73.8622 153.528C74.9915 154.127 76.0221 154.639 76.9994 155.089L77.5928 155.349C77.8581 155.469 78.1287 155.588 78.3994 155.705C79.7634 156.297 80.998 156.795 82.17 157.22L83.3686 157.636C84.8392 158.143 86.1765 158.563 87.5352 158.949L88.3098 159.159C88.8964 159.315 89.4844 159.471 90.0817 159.616L90.3804 159.688C91.0631 159.849 91.747 160.005 92.427 160.147L93.967 160.455C94.3643 160.531 94.7603 160.604 95.1576 160.673C95.4309 160.721 95.7056 160.764 95.9789 160.808L96.6736 160.917C97.0282 160.973 97.3829 161.031 97.8322 161.095L98.2922 161.151C98.6628 161.201 99.0402 161.249 99.4135 161.293L100.599 161.436C101.273 161.503 101.955 161.561 102.629 161.613L104.143 161.732C104.237 161.741 104.329 161.752 104.413 161.757L104.835 161.788C105.555 161.827 106.597 161.847 107.485 161.859L108.804 161.88C108.904 161.885 109.001 161.891 109.101 161.891H109.343C109.453 161.891 109.559 161.884 109.667 161.879L109.919 161.869C110.851 161.865 111.83 161.847 112.984 161.803C113.154 161.796 113.321 161.783 113.489 161.768L113.893 161.74C114.957 161.688 116.005 161.608 117.052 161.52L117.63 161.464C122.45 161.015 126.931 160.208 130.951 159.068L131.379 158.857C139.248 156.623 146.224 153.298 152.115 148.967L179.127 129.121L177.483 127.909Z" fill="white"/>
</svg>
